# xmcd CD database file
#
# Track frame offsets:
#	150
#	17805
#	35941
#	43344
#	64855
#	82314
#	93972
#	117192
#	123179
#	144483
#
# Disc length: 2046 seconds
#
# Revision: 0
# Processed by: cddbd v1.5.2PL0 Copyright (c) Steve Scherf et al.
# Submitted via: CDex 1.70beta2
#
DISCID=8f07fc0a
DTITLE=Bill Evans - New Jazz Conceptions
DYEAR=1956
DGENRE=Jazz
TTITLE0=I love you
TTITLE1=Five (theme)
TTITLE2=I got it bad (and that ain't good)
TTITLE3=Conception
TTITLE4=Easy living
TTITLE5=Displacement
TTITLE6=Speak low
TTITLE7=Waltz for Debby
TTITLE8=Our delight
TTITLE9=My romance
EXTD=YEAR: 1956
EXTT0=
EXTT1=
EXTT2=
EXTT3=
EXTT4=
EXTT5=
EXTT6=
EXTT7=
EXTT8=
EXTT9=
PLAYORDER=
